<?xml version="1.0" standalone="no"?><!DOCTYPE svg PUBLIC "-//W3C//DTD SVG 1.1//EN" "http://www.w3.org/Graphics/SVG/1.1/DTD/svg11.dtd"><svg t="1514622553799" class="icon" style="" viewBox="0 0 1024 1024" version="1.1" xmlns="http://www.w3.org/2000/svg" p-id="3290" xmlns:xlink="http://www.w3.org/1999/xlink" width="200" height="200"><defs><style type="text/css"></style></defs><path d="M512 959.407889c-60.394509 0-118.989021-11.831466-174.155459-35.164894-53.278437-22.535249-101.125165-54.79293-142.209886-95.878674-41.084721-41.084721-73.343425-88.931448-95.877651-142.209886-23.333428-55.16746-35.164894-113.76095-35.164894-174.155459s11.830443-118.989021 35.164894-174.155459c22.535249-53.278437 54.79293-101.125165 95.877651-142.209886s88.931448-73.343425 142.209886-95.877651c55.166437-23.333428 113.76095-35.164894 174.155459-35.164894 60.393485 0 118.989021 11.830443 174.155459 35.164894 53.278437 22.535249 101.125165 54.79293 142.209886 95.877651 41.085744 41.084721 73.344448 88.931448 95.878674 142.209886 23.333428 55.166437 35.164894 113.76095 35.164894 174.155459s-11.831466 118.987998-35.164894 174.155459c-22.534226 53.278437-54.79293 101.125165-95.878674 142.209886-41.084721 41.085744-88.930425 73.343425-142.209886 95.878674C630.987998 947.576423 572.393485 959.407889 512 959.407889zM512 89.408309c-233.018078 0-422.591691 189.573613-422.591691 422.591691s189.573613 422.591691 422.591691 422.591691c233.018078 0 422.592714-189.573613 422.592714-422.591691S745.018078 89.408309 512 89.408309z" p-id="3291" fill="#ED5281"></path><path d="M780.932032 238.833527c-4.372587-4.299933-11.184737-4.889357-16.231683-1.406023L451.983091 453.239711c-0.667196 0.460488-1.270946 0.99056-1.831718 1.559519l-0.054235-0.135076-0.428765 0.64673c-0.765433 0.867764-1.401929 1.834788-1.906419 2.870374L241.384629 768.960373c-3.397377 5.106298-2.691295 11.906168 1.683339 16.2061 2.467191 2.425236 5.708002 3.669576 8.971325 3.669576 2.523473 0 5.060249-0.744967 7.261381-2.263553L567.541991 574.466704c2.299369-0.963954 4.300956-2.574638 5.711072-4.695952l209.362308-314.731124C786.012747 249.932306 785.306666 243.13346 780.932032 238.833527zM461.856973 483.968573l80.170924 76.730569L299.54833 727.712947 461.856973 483.968573z" p-id="3292" fill="#ED5281"></path></svg>