<?xml version="1.0" standalone="no"?><!DOCTYPE svg PUBLIC "-//W3C//DTD SVG 1.1//EN" "http://www.w3.org/Graphics/SVG/1.1/DTD/svg11.dtd"><svg t="1514622648883" class="icon" style="" viewBox="0 0 1024 1024" version="1.1" xmlns="http://www.w3.org/2000/svg" p-id="5310" xmlns:xlink="http://www.w3.org/1999/xlink" width="200" height="200"><defs><style type="text/css"></style></defs><path d="M851.683343 875.343318 172.080261 875.343318c-15.772975 0-25.312693-12.340641-27.503697-23.807337L144.293095 850.053139l0-81.195055c0-9.206104 4.105701-16.503651 11.873991-21.102609 26.765858-15.83847 162.82299-96.566875 213.036987-130.513616 25.831534-17.464581 34.79408-39.560869 37.358608-57.079688-43.906035-42.855049-69.904376-110.01888-69.904376-181.559601 0-59.97476 17.850386-116.529466 50.261072-159.246363 16.082028-21.197781 34.911766-37.89587 55.965254-49.633755 22.192483-12.371342 45.82892-18.64451 70.252317-18.64451 24.41521 0 48.049601 6.273168 70.24413 18.64451 21.051442 11.736862 39.880156 28.435973 55.964231 49.633755 32.410685 42.71792 50.259025 99.272626 50.259025 159.246363 0 71.370844-25.908286 138.448713-69.656724 181.313996 2.489823 17.608874 11.32445 39.837175 36.972803 57.372367 49.634778 33.932415 184.186554 114.667983 210.656662 130.50543 7.695632 4.609192 11.762446 11.890365 11.762446 21.062698l0 81.178681-0.277329 1.467491C876.892678 862.985279 867.401057 875.343318 851.683343 875.343318L851.683343 875.343318 851.683343 875.343318zM176.181869 843.457614 847.450746 843.457614l0-70.543973c-33.664295-20.167263-160.176593-96.243495-208.528083-129.298894-42.091626-28.777774-50.344987-68.157509-51.518775-89.069774l-0.428786-7.649581 5.703159-5.11473c40.724424-36.524574 65.036275-97.523712 65.036275-163.176047 0-53.056878-15.546814-102.766361-43.775046-139.973513-27.232508-35.89521-63.034592-55.663364-100.802542-55.663364-37.778184 0-73.579245 19.768154-100.814823 55.663364-28.229256 37.207151-43.776069 86.916635-43.776069 139.973513 0 65.820165 24.408047 126.906289 65.290067 163.405279l5.754327 5.137244-0.456416 7.700749c-1.236213 20.857004-9.645124 60.13031-52.06934 88.811889-48.916383 33.070749-176.872634 109.157215-210.882824 129.305034l0 70.491782L176.181869 843.45659 176.181869 843.457614z" p-id="5311" fill="#e6e6e6"></path></svg>